<svg id="Capa_1" data-name="Capa 1" xmlns="http://www.w3.org/2000/svg" width="631.97" height="527.74" viewBox="0 0 631.97 527.74">
  <defs>
    <style>
      .cls-1 {
        fill: #fff;
      }
    </style>
  </defs>
  <path class="cls-1" d="M209.77,229.86,632,527.74,521.75,310.45l-181-104.52,153.07-76.78L479.43,2.77,51.29,0H0L48.39,19.71l4.51,1.82,89.76,49.84,72.78,40.13L310.49,104l-88.9,44.09L209.2,172.58l56.45-.79Zm10.34-70.3L364,89.47,217.71,101l-70-38.6-60-33.68,150-5.74L48.39,10.37,470.21,13.1l12.48,110.09L319,205.35l195,112.53,90,177.46L220.11,224.53l70.33-63.36-31.53.46Z"/>
  <path class="cls-1" d="M290.4,161.13l-64.3.87L258,99.1l-40.42,3.18L158.36,69.51,62.11,198.12,154.44,182,88.89,368.67ZM86,183.49,161.3,82.94l54,29.92,25.17-2L209.2,172.62l56.45-.78-151.42,156,55.83-158.94Z"/>
</svg>
